<?xml version="1.0"?><svg fill="#ffffff" xmlns="http://www.w3.org/2000/svg"  viewBox="0 0 64 64" width="128px" height="128px">    <path d="M 45.8125 1.0175781 C 45.684844 1.0419844 45.558609 1.0909688 45.443359 1.1679688 C 41.037359 4.1049687 38.226922 8.9912188 36.919922 11.699219 C 34.956922 8.1992187 32.677406 6 26.941406 6 C 16.300406 6 12 14.083078 12 17.455078 C 12 18.441078 12.760531 19.584203 16.019531 19.908203 C 13.575531 24.649203 11 31.850641 11 41.181641 C 11 56.253641 16.977391 63 22.900391 63 C 24.544391 63 33.184641 62.250656 41.931641 47.472656 C 44.966641 42.345656 47.173391 37.5935 48.525391 33.3125 C 49.258391 33.7365 49.927703 34 50.470703 34 C 53.306703 34 55 30.533563 55 24.726562 C 55 20.739562 51.979 12 43 12 C 41.244 12 39.850594 12.18625 38.808594 12.40625 C 40.064594 9.86125 42.667688 5.4230313 46.554688 2.8320312 C 47.014688 2.5260312 47.137078 1.9053125 46.830078 1.4453125 C 46.599828 1.1003125 46.195469 0.94435938 45.8125 1.0175781 z M 26.941406 8 C 32.334406 8 33.873516 9.9643125 36.103516 14.445312 C 36.125516 14.490312 36.165359 14.518594 36.193359 14.558594 C 36.237359 14.621594 36.275984 14.687234 36.333984 14.740234 C 36.381984 14.783234 36.439141 14.807844 36.494141 14.839844 C 36.546141 14.870844 36.589437 14.913547 36.648438 14.935547 C 36.656438 14.938547 36.663875 14.937453 36.671875 14.939453 C 36.696875 14.948453 36.725953 14.947125 36.751953 14.953125 C 36.834953 14.975125 36.917 15 37 15 C 37.014 15 37.027016 14.994141 37.041016 14.994141 C 37.065016 14.993141 37.087328 14.985422 37.111328 14.982422 C 37.207328 14.971422 37.298719 14.948156 37.386719 14.910156 C 37.404719 14.902156 37.423406 14.904484 37.441406 14.896484 C 37.459406 14.887484 39.335 14 43 14 C 50.63 14 53 21.862562 53 24.726562 C 53 29.008563 51.959703 32 50.470703 32 C 49.265703 32 44.990906 28.040797 41.753906 24.341797 C 41.562906 24.123797 41.286 24 41 24 C 40.948 24 40.89575 24.003719 40.84375 24.011719 C 40.50375 24.065719 40.215078 24.289469 40.080078 24.605469 C 40.053078 24.669469 37.279 31 32 31 C 28.636 31 26 27.486 26 23 C 26 21.139 26.292531 19.650266 26.894531 18.447266 C 27.067531 18.102266 27.026062 17.688766 26.789062 17.384766 C 26.552063 17.080766 26.16525 16.941437 25.78125 17.023438 C 25.73725 17.033437 21.38 18 18 18 C 15.063 18 14.191906 17.487797 14.003906 17.341797 C 14.109906 15.116797 17.270406 8 26.941406 8 z M 24.435547 19.328125 C 24.143547 20.411125 24 21.626 24 23 C 24 28.607 27.514 33 32 33 C 36.913 33 39.942703 28.937094 41.220703 26.746094 C 42.608703 28.269094 44.777781 30.525187 46.800781 32.117188 C 45.518781 36.401188 43.311938 41.216078 40.210938 46.455078 C 31.842938 60.592078 23.791391 61 22.900391 61 C 18.132391 61 13 54.798641 13 41.181641 C 13 31.677641 15.779375 24.492094 18.234375 19.996094 C 20.404375 19.971094 22.831547 19.614125 24.435547 19.328125 z M 41.289062 31.705078 C 40.899578 31.726641 40.545297 31.975234 40.404297 32.365234 C 40.218297 32.884234 40.487812 33.457531 41.007812 33.644531 L 42.888672 34.320312 C 43.000672 34.360312 43.116516 34.380859 43.228516 34.380859 C 43.638516 34.380859 44.021922 34.12775 44.169922 33.71875 C 44.355922 33.19975 44.086406 32.626453 43.566406 32.439453 L 41.683594 31.761719 C 41.552844 31.715219 41.418891 31.697891 41.289062 31.705078 z M 39.435547 36.365234 C 39.045875 36.349578 38.665734 36.564453 38.490234 36.939453 C 38.255234 37.439453 38.470703 38.034531 38.970703 38.269531 L 40.779297 39.121094 C 40.917297 39.186094 41.062078 39.216797 41.205078 39.216797 C 41.581078 39.216797 41.939375 39.004578 42.109375 38.642578 C 42.344375 38.142578 42.130859 37.5475 41.630859 37.3125 L 39.820312 36.460938 C 39.695062 36.401938 39.565438 36.370453 39.435547 36.365234 z M 37.177734 40.886719 C 36.791156 40.844766 36.397813 41.033031 36.195312 41.394531 C 35.927312 41.877531 36.100031 42.486859 36.582031 42.755859 L 38.330078 43.728516 C 38.483078 43.813516 38.649453 43.853516 38.814453 43.853516 C 39.166453 43.853516 39.506453 43.669797 39.689453 43.341797 C 39.957453 42.858797 39.784734 42.249469 39.302734 41.980469 L 37.554688 41.007812 C 37.434938 40.940562 37.306594 40.900703 37.177734 40.886719 z M 34.253906 45.236328 C 34.002906 45.285953 33.770688 45.432109 33.617188 45.662109 C 33.309187 46.121109 33.433578 46.741828 33.892578 47.048828 L 35.554688 48.160156 C 35.725687 48.274156 35.918375 48.328125 36.109375 48.328125 C 36.432375 48.328125 36.749406 48.172766 36.941406 47.884766 C 37.249406 47.425766 37.125016 46.805047 36.666016 46.498047 L 35.003906 45.386719 C 34.774406 45.233219 34.504906 45.186703 34.253906 45.236328 z M 31.34375 49.203125 C 31.08825 49.219375 30.837297 49.331563 30.654297 49.539062 C 30.290297 49.953063 30.331094 50.586172 30.746094 50.951172 L 32.246094 52.271484 C 32.435094 52.439484 32.67125 52.521484 32.90625 52.521484 C 33.18425 52.521484 33.460203 52.407641 33.658203 52.181641 C 34.022203 51.767641 33.981406 51.136484 33.566406 50.771484 L 32.066406 49.449219 C 31.860406 49.266719 31.59925 49.186875 31.34375 49.203125 z M 27.958984 52.611328 C 27.705484 52.576453 27.43875 52.637687 27.21875 52.804688 C 26.77975 53.138688 26.691391 53.765078 27.025391 54.205078 L 28.234375 55.800781 C 28.431375 56.060781 28.730203 56.195312 29.033203 56.195312 C 29.243203 56.195313 29.456719 56.129188 29.636719 55.992188 C 30.075719 55.658187 30.162125 55.031797 29.828125 54.591797 L 28.619141 52.996094 C 28.452141 52.776594 28.212484 52.646203 27.958984 52.611328 z M 23.769531 54.849609 C 23.640953 54.832578 23.508953 54.840953 23.376953 54.876953 C 22.844953 55.023953 22.532688 55.573469 22.679688 56.105469 L 23.212891 58.033203 C 23.335891 58.476203 23.737781 58.767578 24.175781 58.767578 C 24.264781 58.767578 24.353406 58.755469 24.441406 58.730469 C 24.973406 58.583469 25.285672 58.033953 25.138672 57.501953 L 24.605469 55.572266 C 24.495219 55.173266 24.155266 54.900703 23.769531 54.849609 z"/></svg>